<mxfile host="Electron" agent="Mozilla/5.0 (Macintosh; Intel Mac OS X 10_15_7) AppleWebKit/537.36 (KHTML, like Gecko) draw.io/24.7.17 Chrome/128.0.6613.36 Electron/32.0.1 Safari/537.36" version="24.7.17">
  <diagram name="Page-1" id="Zi_3xN67nWYaaA9T_EYX">
    <mxGraphModel dx="1242" dy="878" grid="1" gridSize="10" guides="1" tooltips="1" connect="1" arrows="1" fold="1" page="1" pageScale="1" pageWidth="1181" pageHeight="394" math="0" shadow="0">
      <root>
        <mxCell id="0" />
        <mxCell id="1" parent="0" />
        <mxCell id="5U30cNDtQMpAbmY5_7fr-1" value="" style="rounded=1;whiteSpace=wrap;html=1;arcSize=24;absoluteArcSize=1;imageWidth=64;imageHeight=64;strokeWidth=1.5;" parent="1" vertex="1">
          <mxGeometry x="110" y="100" width="920" height="130" as="geometry" />
        </mxCell>
        <mxCell id="5U30cNDtQMpAbmY5_7fr-28" value="" style="rounded=1;whiteSpace=wrap;html=1;arcSize=24;absoluteArcSize=1;imageWidth=64;imageHeight=64;strokeWidth=1.5;" parent="1" vertex="1">
          <mxGeometry x="390" y="110" width="260" height="110" as="geometry" />
        </mxCell>
        <mxCell id="5U30cNDtQMpAbmY5_7fr-3" value="" style="rounded=1;whiteSpace=wrap;html=1;arcSize=24;absoluteArcSize=1;imageWidth=64;imageHeight=64;strokeWidth=1.5;" parent="1" vertex="1">
          <mxGeometry x="120" y="110" width="160" height="110" as="geometry" />
        </mxCell>
        <mxCell id="5U30cNDtQMpAbmY5_7fr-4" value="Worker Node" style="text;html=1;align=center;verticalAlign=middle;whiteSpace=wrap;rounded=0;fontStyle=1;fontSize=14;" parent="1" vertex="1">
          <mxGeometry x="140" y="112.47" width="140" height="30" as="geometry" />
        </mxCell>
        <mxCell id="5U30cNDtQMpAbmY5_7fr-5" value="" style="rounded=1;whiteSpace=wrap;html=1;strokeColor=#0070F2;fillColor=#EBF8FF;arcSize=24;absoluteArcSize=1;imageWidth=64;imageHeight=64;strokeWidth=1.5;" parent="1" vertex="1">
          <mxGeometry x="150" y="150" width="100" height="60" as="geometry" />
        </mxCell>
        <mxCell id="5U30cNDtQMpAbmY5_7fr-6" value="&lt;b&gt;&lt;font style=&quot;font-size: 16px;&quot;&gt;JMeter&lt;/font&gt;&lt;/b&gt;" style="text;html=1;align=center;verticalAlign=middle;whiteSpace=wrap;rounded=0;" parent="1" vertex="1">
          <mxGeometry x="170" y="165" width="60" height="30" as="geometry" />
        </mxCell>
        <mxCell id="5U30cNDtQMpAbmY5_7fr-9" value="A" style="rounded=1;whiteSpace=wrap;html=1;arcSize=24;absoluteArcSize=1;imageWidth=64;imageHeight=64;strokeWidth=1.5;" parent="1" vertex="1">
          <mxGeometry x="690" y="111" width="330" height="109" as="geometry" />
        </mxCell>
        <mxCell id="5U30cNDtQMpAbmY5_7fr-10" value="Private Edition" style="rounded=1;whiteSpace=wrap;html=1;strokeColor=#475E75;fillColor=#F5F6F7;arcSize=24;absoluteArcSize=1;imageWidth=64;imageHeight=64;strokeWidth=1.5;" parent="1" vertex="1">
          <mxGeometry x="840" y="120" width="170" height="90" as="geometry" />
        </mxCell>
        <mxCell id="5U30cNDtQMpAbmY5_7fr-13" value="&lt;b&gt;&lt;font style=&quot;color: rgb(102, 102, 102);&quot;&gt;SAP Gateway&lt;/font&gt;&lt;/b&gt;" style="rounded=1;whiteSpace=wrap;html=1;strokeColor=#475E75;fillColor=#F5F6F7;arcSize=24;absoluteArcSize=1;imageWidth=64;imageHeight=64;strokeWidth=1.5;dashed=1;dashPattern=1 2;" parent="1" vertex="1">
          <mxGeometry x="869.9952173913043" y="180" width="108.69565217391303" height="20" as="geometry" />
        </mxCell>
        <mxCell id="5U30cNDtQMpAbmY5_7fr-20" value="S/4HANA Cloud" style="image;image=img/lib/sap/SAP_Logo.svg;editableCssRules=.*;verticalLabelPosition=middle;labelBackgroundColor=none;verticalAlign=middle;imageAspect=0;labelPosition=right;align=left;fontSize=16;fontStyle=1;spacingLeft=0;fontColor=#002A86;spacing=0;" parent="1" vertex="1">
          <mxGeometry x="847" y="134.93" width="37" height="19" as="geometry" />
        </mxCell>
        <mxCell id="5U30cNDtQMpAbmY5_7fr-15" value="" style="endArrow=blockThin;html=1;strokeColor=#475e75;bendable=1;rounded=0;endFill=1;endSize=4;strokeWidth=1.5;startSize=4;startArrow=none;startFill=0;exitX=1;exitY=0.5;exitDx=0;exitDy=0;entryX=-0.04;entryY=0.54;entryDx=0;entryDy=0;entryPerimeter=0;" parent="1" source="5U30cNDtQMpAbmY5_7fr-3" target="5U30cNDtQMpAbmY5_7fr-29" edge="1">
          <mxGeometry width="50" height="50" relative="1" as="geometry">
            <mxPoint x="290" y="173" as="sourcePoint" />
            <mxPoint x="420" y="166" as="targetPoint" />
            <Array as="points" />
          </mxGeometry>
        </mxCell>
        <mxCell id="5U30cNDtQMpAbmY5_7fr-21" value="OData API Call" style="text;html=1;align=center;verticalAlign=middle;whiteSpace=wrap;rounded=0;" parent="1" vertex="1">
          <mxGeometry x="247" y="134.93" width="180" height="30" as="geometry" />
        </mxCell>
        <mxCell id="5U30cNDtQMpAbmY5_7fr-23" value="&lt;font face=&quot;arial&quot;&gt;&lt;span style=&quot;font-size: 20px;&quot;&gt;&lt;b&gt;OData API call to SAP S/4HANA Cloud via PrivateLink using Cloud Foundry App Router on SAP BTP&lt;/b&gt;&lt;/span&gt;&lt;/font&gt;" style="text;html=1;align=left;verticalAlign=middle;resizable=0;points=[];autosize=1;strokeColor=none;fillColor=none;fontSize=12;fontColor=#1d2d3e;fontFamily=Helvetica;" parent="1" vertex="1">
          <mxGeometry x="30" y="10" width="970" height="40" as="geometry" />
        </mxCell>
        <mxCell id="5U30cNDtQMpAbmY5_7fr-29" value="" style="shape=mxgraph.sap.icon;labelPosition=center;verticalLabelPosition=bottom;align=center;verticalAlign=top;strokeWidth=1;strokeColor=#D5DADD;fillColor=#EDEFF0;gradientColor=#FCFCFC;gradientDirection=west;aspect=fixed;SAPIcon=SAP_BTP,_Cloud_Foundry_runtime" parent="1" vertex="1">
          <mxGeometry x="410" y="139" width="50" height="50" as="geometry" />
        </mxCell>
        <mxCell id="5U30cNDtQMpAbmY5_7fr-30" value="" style="endArrow=blockThin;html=1;strokeColor=#475e75;bendable=1;rounded=0;endFill=1;endSize=4;strokeWidth=1.5;startSize=4;startArrow=none;startFill=0;exitX=1;exitY=0.5;exitDx=0;exitDy=0;exitPerimeter=0;" parent="1" edge="1">
          <mxGeometry width="50" height="50" relative="1" as="geometry">
            <mxPoint x="610" y="164" as="sourcePoint" />
            <mxPoint x="710" y="164" as="targetPoint" />
            <Array as="points" />
          </mxGeometry>
        </mxCell>
        <mxCell id="5U30cNDtQMpAbmY5_7fr-32" value="SAP BTP" style="text;html=1;align=left;verticalAlign=middle;resizable=0;points=[];autosize=1;strokeColor=none;fillColor=none;fontSize=16;fontColor=#1A2733;fontFamily=Helvetica;fontStyle=1" parent="1" vertex="1">
          <mxGeometry x="400" y="112.47000000000003" width="90" height="30" as="geometry" />
        </mxCell>
        <mxCell id="5U30cNDtQMpAbmY5_7fr-33" value="Cloud Foundry App Router" style="text;html=1;align=center;verticalAlign=middle;resizable=0;points=[];autosize=1;strokeColor=none;fillColor=none;labelBackgroundColor=#FFFFFF;" parent="1" vertex="1">
          <mxGeometry x="350" y="190" width="170" height="30" as="geometry" />
        </mxCell>
        <mxCell id="5U30cNDtQMpAbmY5_7fr-35" value="Private Link Service" style="text;html=1;align=center;verticalAlign=middle;resizable=0;points=[];autosize=1;strokeColor=none;fillColor=none;" parent="1" vertex="1">
          <mxGeometry x="520" y="190" width="130" height="30" as="geometry" />
        </mxCell>
        <mxCell id="5U30cNDtQMpAbmY5_7fr-37" value="" style="endArrow=blockThin;html=1;strokeColor=#475e75;bendable=1;rounded=0;endFill=1;endSize=4;strokeWidth=1.5;startSize=4;startArrow=none;startFill=0;exitX=1;exitY=0.5;exitDx=0;exitDy=0;exitPerimeter=0;entryX=0;entryY=0.5;entryDx=0;entryDy=0;entryPerimeter=0;" parent="1" source="5U30cNDtQMpAbmY5_7fr-29" edge="1">
          <mxGeometry width="50" height="50" relative="1" as="geometry">
            <mxPoint x="465" y="165" as="sourcePoint" />
            <mxPoint x="560" y="164" as="targetPoint" />
            <Array as="points" />
          </mxGeometry>
        </mxCell>
        <mxCell id="5U30cNDtQMpAbmY5_7fr-39" value="" style="endArrow=blockThin;html=1;strokeColor=#475e75;bendable=1;rounded=0;endFill=1;endSize=4;strokeWidth=1.5;startSize=4;startArrow=none;startFill=0;exitX=1;exitY=0.5;exitDx=0;exitDy=0;exitPerimeter=0;" parent="1" target="5U30cNDtQMpAbmY5_7fr-10" edge="1">
          <mxGeometry width="50" height="50" relative="1" as="geometry">
            <mxPoint x="820" y="165.5" as="sourcePoint" />
            <mxPoint x="840" y="167" as="targetPoint" />
            <Array as="points" />
          </mxGeometry>
        </mxCell>
        <mxCell id="5U30cNDtQMpAbmY5_7fr-41" value="" style="shape=mxgraph.sap.icon;labelPosition=center;verticalLabelPosition=bottom;align=center;verticalAlign=top;strokeWidth=1;strokeColor=#D5DADD;fillColor=#EDEFF0;gradientColor=#FCFCFC;gradientDirection=west;aspect=fixed;SAPIcon=SAP_Private_Link_service" parent="1" vertex="1">
          <mxGeometry x="560" y="139" width="50" height="50" as="geometry" />
        </mxCell>
        <mxCell id="5U30cNDtQMpAbmY5_7fr-42" value="" style="image;aspect=fixed;html=1;points=[];align=center;fontSize=12;image=img/lib/azure2/networking/Load_Balancers.svg;" parent="1" vertex="1">
          <mxGeometry x="780" y="145.5" width="40" height="40" as="geometry" />
        </mxCell>
        <mxCell id="5U30cNDtQMpAbmY5_7fr-44" value="" style="image;aspect=fixed;html=1;points=[];align=center;fontSize=12;image=img/lib/azure2/networking/Private_Link_Service.svg;" parent="1" vertex="1">
          <mxGeometry x="710" y="149.51" width="50" height="28.99" as="geometry" />
        </mxCell>
        <mxCell id="5U30cNDtQMpAbmY5_7fr-45" value="" style="endArrow=blockThin;html=1;strokeColor=#475e75;bendable=1;rounded=0;endFill=1;endSize=4;strokeWidth=1.5;startSize=4;startArrow=none;startFill=0;exitX=1;exitY=0.5;exitDx=0;exitDy=0;exitPerimeter=0;" parent="1" edge="1">
          <mxGeometry width="50" height="50" relative="1" as="geometry">
            <mxPoint x="760" y="164.5" as="sourcePoint" />
            <mxPoint x="780" y="164" as="targetPoint" />
            <Array as="points" />
          </mxGeometry>
        </mxCell>
        <mxCell id="5U30cNDtQMpAbmY5_7fr-46" value="" style="shape=image;verticalLabelPosition=bottom;labelBackgroundColor=default;verticalAlign=top;aspect=fixed;imageAspect=0;image=data:image/png,iVBORw0KGgoAAAANSUhEUgAABAAAAADbCAYAAADzq+N8AAAAAXNSR0IArs4c6QAAIABJREFUeF7snQuUHEXVx++t2WQhTAKIirwSQUAE8Yko+AAVUfl4+CAqIoqIUaNLdrp6EkDUUVBgp6s3sAiKgqKIYEAEFRVERUEFURQfnyKgAQTEB7K7CWyyXfebyk741rC70z1d1dM9e/scjp6TW/+6/bs1s9P/rgcOH7EjAV+5JEAA12951X0HxUnuo9fCUQLhkjixHJM9AY1w/CcOgguy75l7ZAJMgAkwASbABJgAE2ACTIAJTBBANgDyOxTYAMhvbZJmxgZAUmIczwSYABNgAkyACTABJsAEmIBtAmwA2CZqUY8NAIswOyzFBkCHC8DdMwEmwASYABNgAkyACTABJsAzAPI8BtgAyHN1kuXGBkAyXhzNBJgAE2ACTIAJMAEmwASYgH0CPAPAPlNrimwAWEPZcSE2ADpeAk6ACTABJsAEmAATYAJMgAnMegJsAOR4CLABkOPiJEyNDYCEwDicCTABJsAEmAATYAJMgAkwAesE2ACwjtSeIBsA9lh2WokNgE5XgPtnAkyACTABJsAEmAATYAJMgA2AHI8BNgByXJyEqbEBkBAYhzMBJsAEmAATYAJMgAkwASZgnQAbANaR2hNkA8Aey04rsQHQ6Qpw/0yACTABJsAEmAATYAJMgAmwAZDjMcAGQI6LkzA1NgASAuNwJsAEmAATYAJMgAkwASbABKwTYAPAOlJ7gmwA2GPZaSU2ADpdAe6fCTABJsAEmAATYAJMgAkwATYAcjwG2ADIcXESpsYGQEJgHM4EmAATYAJMgAkwASbABJiAdQJsAFhHak+QDQB7LDutxAZApyvA/TMBJsAEmAATYAJMgAkwASbABkCOxwAbADkuTsLU2ABICIzDmQATYAJMgAkwASbABJgAE7BOgA0A60jtCbIBYI9lp5XYAOh0Bbh/JsAEmAATYAJMgAkwASbABNgAyPEYYAMgx8VJmBobAAmBcTgTYAJMgAkwASbABJgAE2AC1gmwAWAdqT1BNgDssey0EhsAna4A988EmAATYAJMgAkwASbABJgAGwA5HgNsAOS4OAlTYwMgITAOZwJMgAkwASbABJgAE2ACTMA6ATYArCO1J8gGgD2WnVZiA6DTFeD+mQATYAJMgAkwASbABJgAE2ADIMdjgA2AHBcnYWpsACQExuFMgAkwASbABJgAE2ACTIAJWCfABoB1pPYE2QCwx7LTSmwAdLoC3D8TYAJMgAkwASbABJgAE2ACbADkeAywAZDj4iRMjQ2AhMA4nAkwASbABJgAE2ACTIAJMAHrBNgAsI7UniAbAPZYdlqJDYBOV4D7ZwJMgAkwASbABJgAE2ACTIANgByPATYAclychKmxAZAQGIczASbABJgAE2ACTIAJMAEmYJ0AGwDWkdoTZAPAHstOK7EB0OkKcP9MgAkwASbABJgAE2ACTIAJsAGQ4zHABkCOi5MwNTYAEgLjcCbABJgAE2ACTIAJMAEmwASsE2ADwDpSe4JsANhj2WklNgA6XQHunwkwASbABJgAE2ACTIAJMAE2AHI8BtgAyHFxEqbGBkBCYBzOBJgAE2ACTIAJMAEmwASYgHUCbABYR2pPkA0Aeyw7rcQGQKcrwP0zASbABJgAE2ACTIAJMAEmwAZAjscAGwA5Lk7C1NgASAiMw5kAE2ACTIAJMAEmwASYABOwToANAOtI7QmyAWCPZaeV2ADodAW4fybABJgAE2ACTIAJMAEmwATYAMjxGGADIMfFSZgaGwAJgXE4E2ACTIAJMAEmwASYABNgAtYJsAFgHak9QTYA7LHstBIbAJ2uAPfPBJgAE2ACTIAJMAEmwASYABsAOR4DbADkuDgJU2MDICEwDmcCTIAJMAEmwASYABNgAkzAOgE2AKwjtSfIBoA9lp1WYgOg0xXg/pkAE2ACTIAJMAEmwAS6lYDv+zsT0UsQcS8AWERETwfEHRBgKwDoBYB5zXsfB4ARAHgUER+Loug/5n+JaBQRHyaiuwHg50R03eDg4KPdyIsNgBxXlQ2AHBcnYWpsACQExuFMgAkwASbABJgAE2ACTGAaAitWrNhyfHz8UER8IwC8HACeahnWiNb6a2EYHm9Zt+NybAB0vATTJ8AGQI6LkzA1NgASAuNwJsAEmAATYAJMgAkwASbw3wTQ9/1XE1EfIr4OAOa6BISI/6jX67aNBZcpx9JmAyAWps4EsQHQGe4uemUDwAVV1mQCTIAJMAEmwASYABPodgK1Wk0MDw+/QwhRBYBnZ3W/bABkRZr7eZwAGwDdMxjYAOieWvKdMAEmwASYABNgAkyACWRDoFKp7CuEWImI+2XT4//3wgZA1sS5P2ADoHsGARsA3VNLvhMmwASYABNgAkyACTABtwSWLl1a3nzzzc9CxHcDALrtbWp1NgA6QX2W98kGQPcMADYAuqeWfCezi8DixYtLe+21F9ZqNbNrMF9MgAkwASbABJiAYwKe5z0fEb/a+O+ZjruaUZ4NgE7Sn6V9swHQPYVnA6B7asl30r0E+vr6ent7ew8iotcj4gGIuC0RPaV5xw8TwD+A6FeI+P0oir47ODj4t+6lwXfGBJgAE2ACTCB7Ar7vvw0Avtg8ui/7BCb1yAZAR/HPzs7ZAOieurMB0D215DvpPgJLliyZUy6XjyqVSh8jol1i3uF6IrqUiE4Lw/COmG04jAkwASbABJgAE5iGgO/7HwKAswBA5AESGwB5qMIsy4ENgO4pOBsAE7X0PO/VAPCkTlb23nvv/fqqVauiTuZQtL7NOrzNNtvs9Z3IGxFHlVLfcdW353m7CyG+BgDPbbOPMQD4YBAEF7TZnpsxASbABJgAE5j1BKSUpyDiqXkCwQZAnqoxS3JhA6B7Cs0GwEQtpZS3IOKLOllZIjrE5QNlJ+/NVd+e531QCHGOK/2ZdAngThUEu7no2/f9wwDgYgBYkFafiIaUUssAzP6tfDEBJsAEmAATYAJxCXie9wEhxLlx47OKYwMgK9Lcz+ME2ADonsHABkB+DAAAuCIIgiO7Z3S5vxPf93+b5bm7k+/IlQFgZqMIIb5tc42h1vqjYRjm6u2F+9HBPTABJsAEmAATaJ+AlPJIRLwsL9P+J98JGwDt15VbtkmADYA2weWwGRsAuTIA1gHATkEQPJTDoZK7lKrV6suJ6MedSsyFASCl3BMRfw4A8y3fF2mt3xCG4dWWdVmOCTABJsAEmEDXEWj+Pf4FAMzL482xAZDHqnR5TmwAdE+B2QDIlQEAWmsZhmHYPSPM3Z1IKS9BxKPc9TCzsiMD4LuI+FpH93RvuVzeo1arrXWkz7JMgAkwASbABApPoFarbTY6OmrM+Hb34HHOgA0A54i5g00JsAHQPWOCDYB8GQBE9Ael1F7dM8Lc3ElfX99Tent777U5TT5pprYNgGq1ejARfS9pHkniiejDSqlPJWnDsUyACTABJsAEZhMBKeV5iPj+PN8zGwB5rk6X5sYGQPcUlg2AfBkAzZG1fxAEP+ueUWb/TnzfXwEAZ9hXjq9o2wCQUl6MiEfHzyB5JAH8RQVB3OMEk3fALZgAE2ACTIAJFJiAlPKFiHhLHtf9T8bKBkCBB1lRU2cDoKiVe2LebADkzwDQWl8QhuHx3TPKrN8JSt+/AwF2ta6cQNCmAbB48eLSokWL/g4A2yRIoa1QrfULwjC8ra3G3IgJMAEmwASYQJcSqNVqYmRk5KeI+OK83yIbAHmvUBfmxwZA9xSVDYD8GQAAMLp27drtzj333NHuGWn27kRK+XpEvMaeYntKNg2AarW6GxHd0V4miVv1BUHQkaMTE2fKDZgAE2ACTIAJZETA87x3CCG+nFF3qbphAyAVPm7cDgE2ANqhls82bADk0gAwSR0fBMEF+Rw1nc1KSnkVIh7e2SwAbBoAUsqXIeJPsrgnrfWZYRiemEVf3AcTYAJMgAkwgYIQwGq1+hsi2jurfBHx71EUXQ8AvzT/3/xHRA8LITYjoq201lsj4m4AYH4jmFkJW2zMrUMGAEop99FazxscHLzBBSccPmJHciHMmukJsAGQnmFeFNgAyKcBQEQ/U0rtn5dxkpc8VqxYsTCKorsBoNTpnGwaAL7vHwEA38jonr4UBMG7MuqLu2ECTIAJMAEmkHsCWc4uJKIfAEBwzz33XLtq1aooDpxardbzyCOPHFQqlY4DgMMRcbherz81Tts0MbVabd7w8PBBAHCoEOJQANgOAMIgCGQa3enasgHggqolTTYALIHMgQwbAPk0AExWRLSXUuoPORgmuUnB9/1PAMBH8pCQTQNASvkKRHTipk/B6rwgCJbmgSHnwASYABNgAkwgDwSklNcg4utd5tJ8w/++IAiuStOPlPLJiHiEq5miy5cv3z6KIvOwf1hjduKrAWDzTfJlAyBNAYvalg2AolbuiXmzAZBrA0AppfzuGW3p7mTJkiVzFixYsLrpPqcTs9DapgFQqVR2KZVKd1lIq6WE1roWhuHHWwZyABNgAkyACTCBWUCgebTw/QDQ4+p2CeB2HUWHDA4O/s1VHyl0zfKH52utD0UhDgOiFwIAzqDHBkAK2IVtygZAYUv3hMTZAMivAQAAD5XL5Z1qtdq67hlx7d+J53mLhRBfa1/BbkubBoCZ2jc6OvoAADzZbpZPVCOidyilvuK6H9ZnAkyACTABJlAEAp7nfUAIca6rXAngrnVjY/sNDQ39w1UfSXVrtdpmw8PDr0JE85bfvO3fMYEGGwAJYHVNKBsAXVNKYAMg1wYAaK2PDMPwiu4Zce3fiZTyekR8VfsKdlvaNABMZlLKzyLiErtZPkEtIqKnKaX+6bgflmcCTIAJMAEmUAgCUsrrENGsc3dxrW+cXLRvvV7/tQvxJJrLli3bds6cOYcS0aGI+JrJmwom0eE9ABLS6pZwNgC6pZLABkCzlFLKWxDxRXmrLBF9Ryl1SN7yyjofKeUeiGj2Q5hpSlqmadk2AKrV6kuJ6EbHN3FDEAQHOu6D5ZkAE2ACTIAJFIJAc3nhwykehme8TyI6SynV3ykYvu8/xzzwNzcONL9zhYVceAaABYiFk2ADoHAlmzZhngEwgSavBkBjw7tICPH0gYGB+7pn1CW/EylliIiV5C3dtbBtADTH4dVmOp6rrKMoOtDV0T2ucmZdJsAEmAATYAKuCFQqlX1LpdLNjvTXCSF2HhgYMPsLZH5JKQNEdLFbPxsAmVczBx2yAZCDIlhKgQ2A3BsA5jSAjyilTrNU8sLJVCqVzUulktk0Z+s8Je/IADAzHcw0wV7b90pElyulFtvWZT0mwASYABNgAkUlIKVchogrXeTf6b+7UspPI6KLU3/YAHAxYPKuyQZA3isUPz82AApgAAD8ZX65vGutVtPxK9s9kb7vvxsALszbHbkwAMw9+r7/XgA43+b9mt2Ho/HxA1auXPkfm7qsxQSYABNgAkygyASklOch4vsd3cNRQRBc6ki7pSwbAC0RcUASAmwAJKGV71g2APJvAJgMtdYHhWF4fb5Hk5vsZLV6MxLt60a9fVVXBoDJSEr5OUQ8vv3s/r+l2X24JMQrOjUF0cY9sAYTYAJMgAkwARcEpJTXNjfEsy6vtV4YhuG91oVjCrIBEBMUh8UjwAZAPE5FiGIDoDAGwCVhGB5dhDFlM8dqtfo8IrrNpqYtLZcGgNns0Pf95Y2lAKen2fiQiL6ptT52cHDw37bum3WYABNgAkyACXQLgWq1ehcR7eLgfh4KgmBbB7qxJdkAiI2KA+MQYAMgDqVixLABUAwDAAAei6Joh9n2IOd53vlCCDMlPneXYwNgw/1KKd8AiHUE2DUhgL9prU8Nw9AsJaCEbTmcCTABJsAEmMCsIOD7/hoAmGf7Zonoe0qp19nWTaLHBkASWhzbkgAbAC0RFSaADYDCGAAm0b4gCM4pzOBKmeiKFSu2jKLIbP63RUopJ82zMABM4rVarWd4ePidAPBWIcTLAWDzaW7oMSK6iYiuWL9+/YVDQ0NjTm6cRZkAE2ACTIAJdAGBWq0mRkdHx9PMtJsOQ6eP/zN5sQHQBYM0T7fABkCeqpEuFzYAimMAEMCvVRA8P13Fi9NaStmHiGfnNeOsDIDJ9988EeE5APBUAHhy89/+CQAPRVF0++Dg4KN55cV5MQEmwASYABPIEwHf980LhlFHOX08CIKaI+1YsmwAxMLEQXEJsAEQl1T+49gAKI4BYDIlon2UUr/M/8hKn6GU8veIuGd6JTcKnTAA3NwJqzIBJsAEmAATmH0EfN83ZvrfXdy51lqGYRi60I6ryQZAXFIcF4sAGwCxMBUiiA2AwhkA5yqlPliIwZUiyUqlckCpVPpRCgnnTdkAcI6YO2ACTIAJMAEm4IxAtVp9GhE94KiD44MguMCRdixZNgBiYeKguATYAIhLKv9xbAAUywAAgP9EUbR9t0/1llJegohH5fkTxAZAnqvDuTEBJsAEmAATmJmAYwPg6CAILulkDdgA6CT9LuybDYDuKSobAIUzAEBrfUwYhhd3zyj87zvp6+t7Sm9vrzk3tzfP98gGQJ6rw7kxASbABJgAE2ADABGXOhgHYRAE0oEu4PARO/LRRS7IWtBkA8ACxJxIsAHg1AAwR8tY38GeiH6klHplToaQ9TR83z8JAD5lSdjshF8CgB5Leo/LsAFgmyjrMQEmwASYABPIjgDPAGibNRsAbaMrcEM2AApcvE1SZwPAnQFARD4iBg5GC0VRtPvg4OCdDrQ7KmmO5BkZHb0TAXa2kYjWeqUQ4kgA2NGG3mQNNgBsE2U9JsAEmAATYALZEWADoG3WbAC0ja7ADdkAKHDx2ACYsnhSylsQ8UU2KyuE2ENrfT0A7GBT12gR0aeUUh+2rdtpPd/3/wcAvmUrjyiKnl0qlb7LBoAtoqzDBJgAE2ACTKA7CLAB0HYd2QBoG12BG7IBUODisQGQmQGAiLsS0TGN5/WPORgxD5bL5Z1qtdq4A+2OSUopv4mIh9pIQGt9UxiGL/N93+wnwDMAbEBlDSbABJgAE2ACXUKADYC2C8kGQNvoCtyQDYACF48NgEwNAEQc01r/tbkO3erA0VofFoahtbflVpNrQ2zFihULoyi62xYrIjpWKXURGwBtFIObMAEmwASYABPocgJsALRdYDYA2kZX4IZsABS4eGwAZGoA1Ov1u6SUVyHi4bZHDRF9Qyn1Rtu6ndKTUn4SEU+21P8j5XJ5+1qttpYNAEtEWYYJMAEmwASYQBcRYAOg7WKyAdA2ugI3ZAOgwMVjAyBzA8DzvEOEEN92MGrWI+LCer3+oAPtTCVrtdrc0dHR1QDwNBsdE9G5SqkPGi02AGwQZQ0mwASYgHsC5m/Bo48++rQoiszeOVsQUYmIFjR7fhQA1iDisBBieP369aNbbbXV32u1mnafGffQjQTYAGi7qmwAtI2uwA3ZAChw8dgAyNwAMDvbr1mz5i4ierrtkUNEK5RSA7Z1s9bzff8tAHCZrX611i8Iw/A2NgBsES2Ojvm8PfLII9uVSiWz78N8AOjVWs8zDxOIOBcRNyOixwBgrHFSx2ipVHoIAB4kovuDIDBHd/I1ywnUarWekZER8wC6kxkvZhxprXuEEFuZ/0VEBIBxRPyP1joSQjyCiI+Oj4//dcstt3yAH0hbD6BarbbZyMjIvgDwXCLaGxGfI4R4OhFt27r1f0WYz7FZZvdnRDTf+b+MoujWwcHBvyXU6crwJUuWzFmwYMGOiLgjEfVuHMuIuPWk43HHiehhRIyMuWJMFiHE6oGBgQfMnsNdCaZ5U2wAtF1dNgDaRlfghmwAFLh4bABkbgCYDj3P+7AQ4jTbI4eI/qSUelbR/0hLKX+AiK+0wgfx1qBef/xEB54BYIVq7kSWLl1anjdv3j4A8GIi2gMAFgkhFhGRefCf22bCDxDRHxHxDiL6FRH9YnR09Hfnn3/++jb1uqpZX1/fU+bMmfNiIcQ+WmvzUGEeIrYGxK1Ja41CEBAZVvcj4l+11reUSqUb8jpLqa+vb8GcOXNehIgvBoA9zRhCxEUAsH2KvUjWE8B9CHCP1vrOxqamtxLRzQsWLPhtt23amnRwL1++/Jla68OJ6DWI+DIA2DypRtx4RLxba/1jIrqhVCr9xCzHi9u2iHH9/f1bzZkzZ1+ttTFV9iSihcZQAYDtAEC0eU/rCOBeILoHAO5CxFvMZ3rBggW/75axzAZAmyMDgA2AttEVuCEbAAUuHhsAHTEA+vv7t+vp6TFT3OfYHj1E9HKl1I22dbPS6+/vf1ZPT8/vAcC8VUt9EdH7lFLnbxQqmgHg+/5hWmvz1tHqhYg/VEr906pohmKVSuVJzRMiXoZCvBgB9krxkJYk80eJ6OcAYEyq68vl8s2u3vD6vv9srbUx9Kxe5mFcKfWLdkQ9z3sJIr4LEF+LADu3owGI/6uj6INhGP6wrfaWGpmHpFKpZI4afQ0KsS8QPTPFw1HSrMw4us18DonoSqXUL5MKFDH+pJNO2mbdunVvByHegUTm4bRT19+I6PuIeM34+Pi1K1eu/E+nErHR78bvQ0Q8CAD2RcTdbf0NjZHf2sYmxL80Y1kIcWW9Xv91jDbOQswySzPDq50OzKyehuH3+O+FdjSma0NEPwCAO21qtqH1MkQ05qbVCxF/q7X+mVXRphgOH7FjV087cQEtK002ALIi7b4fjXD8Jw6CC9z3lO8epJS3IOLjb41tZGuOAZz81qHx4/5yAHizDe3JGo2lBV9USr3btm5WelLKlYi4zFJ/o0KI7QcGBkY26hXNAKhWq2Y6etJpsC3xmTdu9Xr9ppaBOQqQUj4ZEd9IRG9GxFe5MNDauN37tdZfa3y+L7b9ECelPBURT2kjpxmbJP2OMLMrNt9886UA8G5ENLMrUl9a6/eEYXhhaqGEAsuWLdu2p6fnCAB4U3OWUbuzQxL23DJ8tdb6ylKpdHnRPpct7wwAzKku4+PjHiIe3+7DWZx+2owxx+feRESfVUp9tU2NzJstX758+yiK3gAAb0TEAydN4c88l8kdmtkWRPR1ALg8CIKbs06mWq2aJZa7ZN0v9+eGABsAbrhaUWUDwArGXIiwATBRhiwMACmlmfZ4rYPCrxkbG9t+aGjIrN0r1FWr1eaNjo6atZrGhU99NaZ/f14p9d7JQmwATNAokgHg+/6riMg8PLwuo7f8bY09IroREcNyuXyVjVkBnTYAmmvfj2uscf+4rQ05N4LN2gCoVqsvbaxrNsaiOSmlp60CZ9SIAG4jrVcuWLDg0lqtti6jbp10Y95Ml0ols9zNPPhbn/FmM2mt9VVhGJoH6lxfvu8faMZy8zShdqfzZ3KPZtkUAAyOjIxcntXSKTYAMiltZp2wAZAZ6uQdsQGQnFleW7ABMFGZLAwA8wwmff8OBNjV9njYdNq7bX1Xep7nHSeEsDkD5SWbvoFgA6AYBkBzs6rFBOAjwPNdjTkXumSmeRKdppS6KI1+Jw0A3/efQ0RfdTFd1DDJwgAwY2j+/PlvQSH6gcjsD1G060Gt9TmNackri7Yhpdl8c2Rk5PjGRpufAoBtigA+zwaAOQ1heHj47SjEMgR4XhF4bpLjfQBwdhRF5wwODprTG5xdbAA4Q9sRYTYAOoI9XqdsAMTjVIQoNgAyNQCM0bAcEc+0PTYI8RZVr5uNrAp12TReCOB2FQTP3RQAGwD5NwB833+bBjhTACws1ACelCwB/FIFQaqHzk4ZAM3ZSWaJ0sbj1qyXwbUBIKV8fSP/0NaSBesAkgneR0TLlVKXFmGD1+Yyiy8j4muS3WZno/NqAEgp3wCIdRcvC7ImbvYfiaLID8PwCld9swHgimxndNkA6Az3WL2yARALUyGC2ADI1gAwu2j39vbea44msz1Aoih6zuDg4G9t67rSq1Qq+zQ25GprY7JpcuoLguAcNgCmppPHJQBSSrM50TnWToBwNVhj6BbVAJBSvgsRP+d6urYrA0BKafYoMA/+xgDoqktr/RMA6AvD8Dd5vTGzXAcAvmJ7yUgW95s3A6BSqewthBhExFdncf9Z9tHYrPh6ADhBKfUH2/2yAWCbaGf12ADoLP8Ze2cDIMfFSZgaGwDZGgCmNymlmWb7toSlahmuG2tIwzCstAzMSYDneZ8XQrzHUjrmDO7tp9rZmWcATBDOkwFQqVQ2F0J8vHGOer/rB09L46ulTBENACnlkYh4WRY74ds2ABYvXlxatGjRRwDg5G4ZQ9MMsnXN2QBn5202gOd5xwohjHmU6z0Wpvvw5sUAMEtXyuXyqUIIP897nrT8Emwd8JjWuj8Mw8+2Do0fwQZAfFZFiGQDIMdVYgMgx8VJmBobANkbAJVK5YBSqfSjhKWKE/7PsbGxHYeGhsbiBHcyxhzH1dPTYzb/m2cjDyL6slLqnVNpsQGQLwOgWq0+QxNdXtB1rdMO16IZAOZ4PyGEOabK2Vnsk2HZNACWL1++YxRFX0HEV9j4/iiChjkxQGt9XF6Or5NSnthc72/l+NZO1CAPBkB/f//TS6WSeSnwkk4w6ESfZq+RUqn0vsmn9aTJgw2ANPTy15YNgPzV5PGM2ADIcXESpsYGQPYGwIbNAKX8g6O1qm8NguBrCYdB5uG+758AAGfZ6tg8CNTrdTNd9gkXGwD5MQB83z8MAL5k69QHW+PHhk6RDADz0DFnzpxbiOgpNu49joYtA8DzvEOFEF9oLB15cpx+uynGHLc2Pj5++ODg4O87eV+u9rLJ+p46bQA0Z+CYGRRWTsHJml+a/ojoT0KIw+r1+p/T6Ji2bACkJZiv9mwA5Kse/5UNGwA5Lk7C1NgA6IgBAL7vm6nPgwnL1TJca31tGIavbRnY2QD0q9XfA9GzrKSB+L9BvW7Wkk95sQGQCwPAmF6nIeJJxgCzUveciRTIADC1+D4imrXbmV02DADP8zwhRNCtYyhmMf6JiK+t1+u/ihlvNczzvHcKIb7YDTXopAEgpTwFEU+1WpxAbtNIAAAgAElEQVTiiT0YRdFBaQ0tNgCKV/iZMmYDIMf1ZAMgx8VJmBobAJ0xAJpnJZtjcmxPv9VEtItSanXCoZBZuDnTGAB+aKtDrbUMwzBkA2Bmoh3cAwB93z8PAN5nq+Z51CmKASClXIKIVtfgxqlHWgPA931ztvyH4/Q1C2L+AwCHBEHwsyzv1fO8/YUQZvnanCz7ddVXhwwAY8ApRCzMfj2u+Dd1UxtabAA4rlDG8mwAZAw8SXdsACShle9YNgA6YwCYXn3fN2eGT7luPc2o0VrXwjD8eBoNl20bu3ZfiohvtdTHGBHtqJT6JxsA+TMAmmeDfxYRj7dU79zKFMEAMGvntda/a8w+2jJrkO0aAGYMjY6OmtM9PpB1zjnvb5SIXq+UujGLPFesWLHleBTdhgA7Z9FfFn1kbQDUarWekZGRzyPiu7K4vwL18R8iOlgp1dapQGwAFKjSMVJlAyAGpE6FsAHQKfL2+2UDoHMGQPNtyk32qwqry+XyLrVaTTvQTiVZrVafRkRmdsLcVELNxkR0qVLqqJm0eAnABJ2sZwA0H/4vaJwDfayNWuddowgGgOd55wsh3tsJlu0aAFJKYyAt6UTOBejzX1EUvWRwcPBO17lKKb+EiMe47idL/YwNADMTyux/8o4s77FAfT1YKpVefOaZZ96TNGc2AJISy3c8GwA5rg8bADkuTsLU2ADonAFgeq5Wq7cT0d4Jy9YyvLlG9NqWgRkHSClPRsRP2upWa31QGIbmfOFpLzYAOmMASCnPRsQ+W7XOu07eDYBSqfQRrfVdtsy3pPVoxwBorvlXSfuaTfFE9McoivZzeTpA88SIn3bDuv/JYyNLA8DzvI8IIT4xm8ZmG/f6m7Vr177s3HPPHU3Slg2AJLTyH8sGQI5rxAZAjouTMDU2ADprAPi+/yEAGEpYtpbhRHSZUuptLQMzDDBvhNesWXMXET3dRrdmR+wttthit1YzHdgAyN4A8H3/3QBwoY06F0Uj7wYAEQ0LIczpGx25khoAUsrXI+I3u/xcdCu1IKLr5s+ff0itVhu3IriJiJTyJ2YGkQvtTmpmZQA0d/s3p/N05Qaolmt4zerVqw9ftWpVFFeXDYC4pIoRxwZAjuvEBkCOi5MwNTYAOmsAmHWVURT9DQC2SFi6VuFjc+bM2eH000//V6vArP69eXyX+UFv5SKik5RSZ7QSYwMgWwNASvmKxsPC97tlo7BW42vjv+fZANBa/0oIsQcAzIt7P7bjkhgAlUpl71KpZJZHzbedR7fqEdEnlFIfs31/UsrXIGKnZpOtA4CRxoZ5j5j7IiKzd8Vmtv5eZmEASClfhIg3ONjw13apc6NHRCuUUgNxE2IDIC6pYsSxAZDjOrEBkOPiJEyNDYDOGgCmd8/zPi+EeE/C0rUMJ6J+pdRZLQMzCpBSfgsR/8dSd+sRcWG9Xn+wlR4bANkZAOZ8+Z6eHrOR06w7oz3PBkCrz0gW/x7XAOjr6+vt7e29FQCenUVeMft4iACGAeARIBoDxF4g2hwRFwDA9gAgYuq4DFtPRPsppX5psxPP874uhHijTc1ptMa11j9AxGuIyCyN+83g4OC/p4o96aSTtnnsscd2FkLsRkT7IuJ+iPiCpKajawOgVqvNGxkZ+TUi7pYBv1hdIOLftdbDgDi8cSwj4jwg2jiW8zBLYSyKohfGPR6QDYBYpS9MEBsAOS4VGwA5Lk7C1NgA6LwB0HxDcEvC0rUMR8Tf1uv157QMzCCg+WBo1h9b+aFMRF9XSr05TupsAGRjAJglHsPDwz8WQrw0Tl0cx6wlolsR0TxI/kVr/VcA+BsRmTeJY729vebf50dRtEBr/RQA2AMRzQPnCxBxHwDoSZofGwAzE4trAEgpT0fEE5PytxXf2LTyr1rrG8xbW631r9evX3/X0NCQefif8jKGxdy5c5+BiOa79hVE9EpENLMtOnH9bmxsbJ+hoaExG51XKpUdSqWS+ewk/jwk6H9tY6aHIqKzZzrNpZXe8uXL52utD2uccnGkEOJ1cd64uzYAOr0PCgHcBUQ3NMbkDaVS6fY1a9bcOdP6+lqtttno6OiuRPRcM5YBwIzlzpgXiLeWt9hivzjLWtgAaPXpKNa/swGQ43qxAZDj4iRMjQ2AzhsAJgPP834phDBvMKxeURS9eHBw0Lq5kDRJz/M+JYQ4KWm76eKJ6BCl1Hfi6LEBMEHJ9SkAnd6wjQD+Qlp/TQhxZblc/mWcH45TjZ+lS5eWt9hii/2jKPqfUql0eNw9K9gAmPnTGMcAaG42Z461K8X5bFuMMUfqXUJEF4VhaDa7S3X5vm/MAHPUm/lvm1RiCRtrrU8Pw/DkhM2mDJdSLkXET9vQmkrDPKD2lEqvamfn95ly6u/v36qnp+dYAvgAAuw+XaxLA8DzvFcKIcxSKCumd4IaDBPRxVrri2z87a9Wqy+IouhdQghzZPFWCfJIHaq1PiUMw5abBvu+/yNE3KmdDonIfNcsaqdtjDYPIWKiDQ1jaCYKISIzG8/M7rB6mRdMWuufWRVtirEB4IKqJU02ACyBzIEMGwATRZBS3oKIL7JZEkTctV6vm7feLS8p5RJE/GzLwIQBRHS+Uup9CZtZDa/VanPXrFlzDxFta0k40TGHbABMUHdpACxfvvyZWuvb4rx1szQGNsoQEX0LAAKl1I8ta2+Qq1Qq+wgh3oeIb59pDX23GgAE8GvS+kdCiN8BwOrmLApNRAuEEGUi2gUAzFtCMxX7edNNw25lADTfpP8GEZ/poo7TaD5KROeuW7fuzKGhoX/Y7te8lY6iqA8RJQA8ybb+NHpj4+Pje6xcudK8uU91eZ73DSHEEalEpmmMiP8YHx/f3/ERhuh5ntlM8sONfQz23zQVVwaA7/tbIOLv4pqHlviOaq2HiCiYbulEmn7MfkXr16/vF0JUAMDsxZDFtWZ8fHy3lStXPuCqs+bRxK70jw6C4BJXucfR9X3/XAD4QJzYhDFhEATme836xQaAdaT2BNkAsMey00psAExUoNMGgHnrOG/ePLMZoG2n1kxd3T4IgjWdGmu+75vTCL5qq//GE9/HlFKxj1NiA2CCvCsDYPHixaWFCxf+eKof2LZqPo2OWStcVUr9wXE/G+RPPPHErdevX28e5rypfgB3mQHwsNb6fK31Z5I8SFYqlc2FEC8kogMQ8bDGeu59N+583soA8H2/v8F1MItamj6I6EYhxLFxTdo0eTV+hD+ViD7deCg8Mo1OgrZfCoLAzD5o+6rVaj2jo6NmE1nbf5M25KS1flsYhpe1nWDCho23xAcSkVle8pKNTV0ZAJ7nfVgIcVrCFNsOJyJzFO57lFKr2xaJ2XD58uXbR1H0GfP5jtkkbdh5QRAsTSsyXftZYAB8BgBcvARiA8DVoMyzLhsAea5OstzYAJjg1WkDoJnDeYj4/mQVbB1NRMcqpS5qHekmwkzPA4ADLKlHQoinDwwM3BdXjw2ACVKuDADP844VQnwhbj0sxJnanxAEwZUWtBJLVCqVJwkhViCieWCdu1GgSwyA8cZMnfOiKPqojXPlK5XKXkII8/b1qJkMgL6+vgW9vb1mtlQWm0eaWSMfnT9//qdaHSGaeHC0aCClPAYRz2/uZG9bfrKeOULteUEQmFkbbV3VatVssHdHW41bNGoYRD9szNh5lQvtFppmRsBbSqXSGebtvAsDQEr5ZES8M6O35FFzx/zQeFpZ8mzOWjwn6caLbeS4PoqiPV3NFOl2A8DzvPOFEO9tg3urJmwAtCLUjf/OBkD3VJUNgIla5sEAqFarzyMiM43a6qW1/kkYhmZDn8wvKeWeiPh7Wx2b6d6NXa4TvXlgA2CCvgsDwGwaNTw6+icBsNBWjVvofJeIjkmzWZitPM2yhyiKzkHEg4xmFxgA9yPi2+r1+k9sMdqoY46SM/9fKXXdVNpSylMR8RTb/U6h91hjQ8hjs3zzvGkOnuftXyqVvtGYEWA2n3R2pX249X3ffM9e7SjBjk6NNt9bIyMjJyDiXmlnSmzKR0oZNo4tNNPkXV9mVp/heJXrjqbTb+5zcAUAbO0yB631JWEYHu2ij243AKSUn0PE4x2wc2cAPHLEjmbzDL5ySAAJfrXg6vuWx0nto9+FV5ZK8OE4sRyTPQFCCGoHwXez7zlfPebBADBEpJQ/R8QXW6ZDQohnDQwM/Mmybks5B7sgvyHpDx42ACbK5MIAkFJKRAxaDgQ7AaeWy+Va1m9tW6XefKt7ttnQTAWBOUGg7SvDB+H/ypEAbheIr41zrGbbNzdNw2XLlm07Z84c8/Z/C9vam+iZY/KOiLt5qMtcmmavmRnlci01RVG0e7tvTj3P84UQdQccaO3atQtm2o3eQZ9TSpplDu1uFjqV4IoVKxZGUWRmTfQ6vofHAOD1QRCYMdTRq7lxpzH2yg4TGRdC7Jxk5l/cXGaBAXABIh4Xl0eCOHcGQIIkOJQJMAEmkIpAXgwAV9OpiWhAKbUiFaSEjc1GSABgpmvb2jn4/nK5vCjpDzY2ACYKZ9sAMJtCRVFkHtxc73JuprZ6QRCsTDgEMwv3PG8nRPxQ2s9YRwwAxFt7SqWDzzjjjIczAzapI9/3a40JFB9z3LfZtPAdSilre5Gkzbdarb6ciMyLrseXkaTVnKJ90Nj/pdqOru2TWzbmYDb/q9frT20np7y3kVIOIGJbvBPcm5n2f6RS6hsJ2jgNNTN8Gi8uzKk8Lk/v+HgQBOa7wuo1CwyALzSONj3WKrQJMTYAHEBlSSbABDImkBcDoFarzRsdHTWbAdp6aN5I8sHh4eGF559//vqs0Eopj0fEz1ns75NBECSeJswGwEQFbBsAWW10pbVeGobheRbHUW6lsjYAzNGJ4+vX73fWWWf9vRNQmhvNmd3qd3DZv9b6o2EYnuqyj3a0pZQnIuLp7bSN2eZf5XJ5x1qtZt4YJ7oczN7a0D8R/V4p9exEyRQg2CwrGB0dvTeDfSxODILgzLwhyeC7q60XAK04zQID4IuImGpD0GkYsgHQanDxvzMBJpB/AnkxAAwpz/POEkKc4IBa4unzaXKQvn8rArwwjcakthoAdm2s1/xLUj02ACaI2TQAzM7/ixYtMrVo6+zluDUkojOUUifFjS96XAY/oicjeiyKon0HBwd/2yluUso3IaJZQ+zs0lpfGYbhm7PeJC3ODZnP0U477XSDEOKlceLbidFavysMwy8lbSulvBAR3520Xat4DXBPGASuzl1v1b2zf28uBUrMOUlCRPRNpZQ5ljHTDf/i5LhkyZI55XL550KIF8SJbydGa31kGIZWvy9mgQHwJUQ8ph3eLdqwAeAAKksyASaQMYE8GQBm5+xSqdT27s3ToWv+eDg8C7SVSmXfUql0s62+tNbXhmH42nb02ACYoGbTAPB93/wIdT0F9YpyufyWvK35b2cMxm2TsQGwLAiCs+Pm5iJOSnktIm7YINDRdd/Y2NheQ0ND5jjUXF6e5z1fCHErAAgXCRLRdUqpg5Nqe573eSHEe5K2ixH/aBAEZnlY7h5iY+Q+bUhjGvxNLo9CNUsnenp6nnX66aeboxlzeZkNLoUQN248+tN2kkT0DaXUG23qdrsB4Pv+lwHgHTaZNbXYAHAAlSWZABPImECeDABz657n/VgI8XLLGMxGOosGBgbut6z7BDnbb4+01m8Jw3BVO3mzATBBzaYB4Hne94QQiR8qEtTvvvHx8b1tHEWXoM+Oh2ZmACDeGtTr+3byIUxKuagxNdXMIkFX4InojXlaKz3dffq+b45pfacjDuvGxsaektQEaRxnZ064+KCjnJ4bBMHtjrQzl+3v739WT0/PH1x2rLV+dxiGX3TZhw1t3/cvBwAz48bFtaZcLj+5nSUt0yXT7QaA53lfEUK83UEx2ABwAJUlmQATyJhA3gwAKeXRiHixAwwnB0Hgcs0pnHjiiVuPj4+bzf/mWcr/oXK5vFOtVlvXjh4bAHYNgEqlsmupVDI7Xbt6cDO7lx8yODg4604nycoAaJzDfkDjHPYft/N5stXG9/0PNTaQHLKlt6lOljOe0t5DtVp9BhGZz5SrWQCLG+vuzYNZ7EtK+UlEPDl2gwSBWutqGIZZnR6SILP2Qn3fNxvsntFe69atiOinSqmXddKwa53lRETDADD7Oxhzx8nfByI6xOZJHt1uAEgpv2qOd41bvwRxbAAkgMWhTIAJ5JRA3gyA5oZC5iHa6g7rBHCnCoLdXf6Q8H2/v3G81aCtUhNRXSkV69jRqfpkA8CuAeB64zIi+qpSysUbC1tD0plOFgZA4+H/h42H/1c5u4mYwo6n/5PW+oVhGN4WM52Oh0kpr0bEw1wkQkQXKaUS7QQupVyKiJ92kg/AX+aXy3u0a+q6yCmNpuvp/w0D4GCllDlqrxCXlPJ6RHTyHUNE5yqlrM1MmQUGwKWI+FYHA4cNAAdQWZIJMIGMCeTNADC3L6UMEFHaRhFF0YGDg4M32NZt6qGU8g+IuIclffNDfo8wDM3bsbYuNgCsGwA/RcT92ipG60broyjas92zy1vL5zsiIwOg49Pi+/r6FvT29v7D1RF4RPRtpdSh+a72f2dXrVYPJqLvOcr5oSAInpbE+PV935gRVzvKx5wG4CmlrBnFrvJspev7vjnS8AFnszcQb1H1+otb5ZGnf/d936zT/7qjnFYHQfB0W9rdbgD4vv81AFhsi9ckHTYAHEBlSSbABDImkEcDwPO83YUQf7Q9lY6IvqyUcrLe1Pd94/pfb7F8NwRBcGAaPTYA7BkAzR9L5phKV1OVz1dKvS9NvYvcNgMD4G+rV69etGrVqqiTnHzffwsAXOYqB631QWEY2vwecpXq47rNkzXM/izmgdL6FUXRbkmMtca+BDs39iW423oi/y84rrU+IgzDaxz24Vza931zUsKFDjs6KgiCSx3qW5fu6+vr7e3tNUeLbmldHADGx8e3X7lypTFdUl+zwABwtScDGwCpRx8LMAEm0HECeTQADBRHU+kebf4B/Y9t8LbdZiJ6h1LqK2nyZAPAngEgpTweET+Xph4ztSWivZRSTjfTcpW7DV3XBoDW+pwwDPts5JpGQ0r5WURckkZjhrZ/K5fLC4t4eoRjLkkfJNH3/X8DwFaO6mRk1wJAfxAEzr5THOa+QVpKeTEiHu2on0eiKNpucHDwUUf6zmQdczk8CIJv2ki+2w0AKeUViPgmG6w20XBoAHz530c5SJglbRAQ+CAcvfUP40jRdbAQCJydcRsnB46ZgYCAm/Egpy5/IfDn1QBw9aZMa700DMPzbBan+Yf0HgCYY0n33+VyeYe0O/6yAWDPAPA87xtCCHMEoPWrudHVrP5b4doAAIBXNmbU/Mh68RIKSt//FQI8P2GzuOFBEATVuMF5ivM87xAhxLdd5ERESinlJ9F2+XmfnIc53o2ITgjD8N4k+eUhVvr+nxDA7Ktj/SKiC5VSLo5itJ7rpoKe5y0WQpjp59YvIvqEUupjNoRngQFwJSK+wQarTTQcGgBfebirzgh1AL+TktfD0VsfFCcBuhaMkXNJnFiO6QABAcfjQXBBB3rOVZd5NQBqtdrcNWvW3ENE29oERgC/VEGwj01NKeUpiHiqLU0iOkspZTYUTHWxATCBz8YxgNVq9UHbY3FjcYnovUqpz6cqdsEbOzYA1pbL5a07vfFac4PTYYtG4X9VnYherpQyZ5EX7lqxYsWWURSZc95LDpJPvJzK87wPCCHOdZDLVJKPmu/8np6eM84888xHMuozVTf9/f1b9fT0mFkSTna811ofFobht1Il2aHGy5Yt23bOnDkPOur+miAI/seGdrcbAA5NPDYAbAzAAmqwAVDAok2ZMhsAG7Dk1QBo5nY6Ip5oe8hprZ8XhuFvbOia9as7LVp0twBYaEOvqbF3EAS/S6vHBoAdA2DFihULoyhanbYe07QnRNy+Xq+7+sHoKG27si4NgLzs/u953kuEED+zS+5xNXNO+JM6bXKkuTfp+7chwPPSaEzTdjgIgkRrspsPR+atfI+DfKaT/JfWesicQKCU+meG/SbuysGeN5NzWC+E2GZgYGAkcWI5aSClvAMRd3OQzgNBEGxvQ7fbDQCHp4uwAWBjABZQgw2AAhaNDYDpi5ZnA6BSqexSKpX+bHvjNSIaUkqdYGMoe553uBDiKhtaRoOIfqaU2t+GHhsAdgwAKeWRiLjKRk021dBa/yoMwxe60C6SpmMD4DSl1Ec6zcP3/Q81jjcdcpGH1vraMAxf60I7K00p5XmI+H4X/UVRtM3g4KB5Yx378n3fLEk4JHYDe4FrtdYXCiHMg8Zf7MnaU/J9fwUAnGFP8f+VtNY/CcPwFS60s9KUUn4JEY9x0B+Vy+V5aZcHmrxmgQHwLUS0MltikzqyAeBgYBdBkg2AIlQpTo48A2ADpTwbAM38vouItn/YWllj38zvGkR8fZwhFzPmuCAIvhAzdsYwNgAm8KRdAiClPBMRl9uoyaYaWuvTwzA82YV2kTRdGgAAkHQTOCfoHG90d2oQBB91knhGolLKPkQ820V3iPj8er3+6yTaUsrXIuJ3k7SxHKuJ6DuIeF65XP5OnjZ3dLnRHRENKKWMwVDYS0p5IiKe7uIGEHH3er1uXoykurrdAHBo4LEBkGrkFbcxGwDFrd1/Z84GwAYeeTcAXJ2rS0RvV0p9Nc1wbh4XdafFGQpm/ecOjY281qTJa2NbNgCsGQDfR8RX26jJFAbAkWEYXuFCu0iaLg2Adh7+XLDzff87APA6F9p5MTnS3JuU8jWIeG0ajRnatrV7uvT9WxGg4zN0EPGvRHQ+AFwQBMFDjhjFlvU878dCiJfHbpAgUGt9TBiGFydokrtQKeUbEPFKR4m9OgiCH6TVngUGgKvvWzYA0g6+grZnA6CghXtC2mwAFMIAqNVqPaOjo2b9tZV1bxvHQWPDrOsbG2bF2tBzuiEvpbS9R8F5jR93S219xNgAsGQA+P7dCGDOBrd+IeKu9Xr9LuvCBRN0aACYKbPlWq1mjl3r6CWl/D0i7ukoiecGQXC7I+1MZF3utaG1/lAYhp9OeiOVSuWAUqnU8dMjJuX9GABcpLUOwzC8I+n92Ir3ff+vALDIlt5kHZt79LjIL45mf3//s3p6epwc66q1fncYhl+Mk8dMMd1uAHie9z0hxMFpOU3Rng0AB1CLIMkGQBGqFCdHNgA2UMr7DACTo+/7nwAA22t4NQDs2u4ay76+vt7e3l5z9N9T4wy3ODFa6xeEYXhbnNg4MWwATFBKswTAbPK4aNEicxa1rSMeJ5dupLk52aw/+cehAfBwEARPivN5cR3j+77Z1Kzsop9yubxFHkyONPdmTn4ZHR01D7jWd5YnojOUUie1k5/L6e7t5NNso7XW30TEIOuTH5rfiaZOLjZItLbGPQXb1E2bpyQ8nFpoCgEi+ohS6rS02t1uAEgpr0XE16TlxAaAA4IFlWQDoKCFe0LabAAUxgBovhm628ERUW2vm/V9/+0A8BVbHwcXxxOyAZDeAFi+fPmOWmtXZ3T/LgiCvW2NoSLruDIAiOiPSqlndZpNpVJ5UqlUMsfcubgS73LvIgkbmr7vm436trahNVmDiMzO+mYTxsSXeZgTPT2/sXzSS+I8pmtARD9HxE8FQfBNa6IzCHmet5MQwpjfLq5/B0GwjQvhrDV93zcmSa/tfm3tkTALDABXS/d4BoDtQV0QPTYAClKolmmyAbABURFmADTzNG87Dm1Z12QB965evXrnVatWRcmaAdheA6m1fn8Yhp9NmsdM8WwATNBJMwPA87z9hRA32azLRi0i+p5SytWacBcpO9N0ZQAAQOIz4F3cpO/7zwEAK0ePbpofAdyhguCZLvLOWlNK+b+IuIftfonoC0qp49rVrVQq+5ZKpR8CwLx2NVy3M8ddEpG0OYtsqpx9398PAH7q4n6I6PdKqWe70M5a0/d9Y5LsZLtfrfU5YRj2pdWdBQbA9Yj4qrScpmjPBoADqEWQZAOgCFWKkyMbABsoFcUA8H3fHOfyrTilTRJDRIcopcxmMbGvSqWyV6lU+l3sBq0DR8fGxnYYGhoabh0aP4INgAlWaQwA3/ffBgCpNoucrmJpH0rij4T8R7oyAIjoW0qpwzpNoFqtvpSIbnSRh9FVSjnZkM1FvjNpSinN2+wX2+6XiC5VSh2VRre5Ia05DrSURsdxW3NywEWlUumUgYGB+130Va1WDzbmpQttIvq+UsrFtG0X6c6o6fv+bwHAupmhtb4gDMPj097QLDAAfoiIB6blNEV7NgAcQC2CJBsARahSnBzZANhAqSgGgFl3uNOiRXc7mIZ5RRAER8YZMhtjPM8bEkK0NZ10qn5s/UHfVJsNgPQGgJRyKSIm3jws5ngKGic+VGPGdnWYKwMAABJ/vl2A9n3fbDh6nQvtbppJIqW8ARGtnwGvtb4qDMM3pOXv+/5bGnvHmB3qXewJkja9ye3XENGn5s+fP1Cr1cZtCvu+fwQAfMOm5kYtW3VykVtSTVcnSGitLwnD8Oik+WwaPwsMACffJQDABkDawVfQ9mwAFLRwT0ibDYBCGQBNs+IURDzV8hBcNzY2tuPQ0NA/4uguXbq0PG/evPsAYMs48TFjXhIEwc0xY2OHsQFgxQCQZqOt2NATBBLRaUop25tbJsggP6GuDABbP5bTkvJ938xCuDqtzlTtieibSqnDXWhnrelq4y4iuk4pZWVHcM/zDhFCXAoA87Pmk7Q/s7eMjqJ3DQ4O/j5p2+niHc+KukwpZWZdFf5qHGt5U+NYy/1t3wgRfUMp9ca0ut1uANhepjmJNxsAaQdfQduzAVDQwj0hbTYANiApygwAk+vy5cu3bxyBY44EtLr7sNbarJsM4wxtKeUSRLS2Vp8AbldB8Nw4fSeNYQMgvQHged5HhBDmFArrl9b6lDAMP2lduICCrgwAMx1aKXVsp5F4npTUgAsAACAASURBVPfW5kOj9VSI6HKl1GLrwh0QlFK62OsFbE8tN8vARKl0FQI8owOYknb5KBF9QCl1UdKGU8V7nnecEOICG1pTaHypcTLPuxxpZyorpfwBIr7Sdqe2ZknMAgPgRiHES23z5xkADogWRJINgIIUqmWabAAUzgBoGhZXIOKbWtY3QQAR/UEptVecJp7n/VII8YI4sXFiiOgEpdRQnNikMWwATBBLsweAlPJ0RDwxKfuY8cuDIKjHjO3qMIcGwBeVUu/uNDzP844VQnzBRR421re7yKsdTd/3zX4s1jfGJKKrlVJm6rq1q6+vb8HcuXPPRcTU07GtJTWDkDkJ4Z577lnWzqa3k2U9z/ugEOIcFzm7Wg7nItdWmq7eQBPRV5VS5hSiVFe3GwCuZmCwAZBq2BW6MRsAhS7fpOTZANgAo0gzAEy+Djcg2j8Igp/NNLwbP07N5lQ/t/gReLSnp2eHM844w8l5wWwATFQqpQGwEhGXWaz541I8A+D/qXa7ASClPB4RP+doHF0ZhqFVU9RFnnE0Xb01dWmSmNkdpVLpLCLaNs49djLGzBaZP3/+0bVabV27eTSOajyhcVTjWe22b9Hu4iAIjnGknamsrFZvRqJ9bXdqyySZBQbAzxDxJbb5swHggGhBJNkAKEihWqbJBkAhDYBarSZGRkfvsD31Ms4fVSnlFxDR2nRiIvqyUuqdLcdqmwFsAFgxAM5DxPe3WYJWzT4ZBMEprYJmw7/PAgPgaEQ0m8e5uK4JgsCcklL4y9VbOyK6UCn1HleATjzxxK3Xr19/BiKaPvJ8SoBZDvH1+fPnL67VarodHr7vvxcAzm+nbYw2q4IgMBstFv7yff/XAGB9eR8RDSmljAmT6up6A8CRAcMGQKphV+jGbAAUunyTkmcDoJAGgEna9/0VAHCG5aE4unbt2u3OPffc0al0K5XKk0qlktn8b3Nb/Zrdruv1+k9s6W2qwwbABJGUMwBCRKw4qpGzzYQc5etMdhYYAG9CxCtcACSi65VS5pSBwl/S93+FAM+3fSNm+rtSytrJLdPlV6lU9i6VSgMuljHYZEJEg0oprx1NKaUzM8vFUo127tFGG+n7f0KA3W1oTdYgogGllPkNlOrqegNAylsQ8UWpIE3d2NnfbYSvPEwOEmZJOwTYALDDsfMqbABsqEHRlgCYnH3ffyoA3AsAc20OJK31e8IwvHAqTc/zPCGEstUfEf1RKbUnADj7vmcDYKJaaQwA3/dPA4AP26r7Jj/kcrE+3cW9JdXsdgOgUqm8rlQqmfXt1i8CuE0FgbV9SawnmEDQ9/17AGCnBE1ihWqtzwzD0NVeHk/IQUr5MrNiDREPBQARK8mMg7TWR4ZhmNiU8n3f7ED/dRfpEtGNSqmXu9DOWtP3/X8BwJNs90tEH1NKpd6YtusNAN+/FQFeaJs/zwBwQLQgkmwAFKRQLdNkA2ADoiIaAM28L0XEt7asc4IAIvqpUmqqXWNRSvm/iPjMBHIzhhKRr5SyZihM1RkbABNU0hgAUsqTEdHJTv1E9AOl1Kttjaki68wCA+CAUqn0I0c1uj8Igh0caWcq6/v+YwDQ66DTZUEQnO1Ad0bJ/v7+ZwkhpBDiHY7uK80t/UcIsdfAwMD9SUSklK9trK3+bpI2cWOJ6M9KKetvzeP2bytuyZIlcxYsWDBm/vzY0pykc3wQBKlPYZgFBoCT2URsADgY0QWRZAOgIIVqmSYbAIU2ADzPe6UQ4gct65wwYHx8fM+VK1f+7+Rmnue9Wgjx/YRSM4WPjY2N7TQ0NPQPi5pPkGIDIL0B4Pt+PwAMuqgTAdypgmA3F9pF05wFBsA+pVLpF47qMl4ul3vbXdPtKKfEsitWrNgyiqL/JG4Yr8EbgiC4Kl6o/aj+/v7tSqXSCYi4xMVb4XYzJqLLlFJvS9K+Wq2+1LypT9ImQexwEARbJojPZWjzyOK/OUruNUEQpP49MgsMgNsQ4HkOasBLABxALYIkGwBFqFKcHNkAKLQBYJx122/lDRAiMi/m/clDSEq5ChGPjDOs4sS086Mrju6mMWwAWDEAzBFyUy4Laacmm7RZVy6X56fZkdtCDrmQ6HYDwDwA9vT0JHrTmqQwURTtODg46OqBI0kqbcd6nvdcIYTZOM36hYjPr9frTrSTJFur1eaNjo4eTQAfQoDnJGnrKjbpXjQrVqxYGEXRalf5jI+Pb71y5UpXRpCrtP9L1/O8/YUQN7noDBF3r9frf06rPQsMgN84+oyxAZB28BW0PRsABS3cE9JmA6DoBgDYXpffHCMPlcvlnTY+lDWd/L8CwBxbQ19rfVAYhtfb0ptOhw2A9AaAq5kmG2uGiC+s1+u/cj0W8q7f7QaAOb1kdHR0ratp4Fl9p7gcR77vm93fL3PRRxRF2wwODv7bhXa7mr7vH6i1PkEIcUQn9wlIuhRp8eLFpUWLFj1q82/iZIZa6/3CMLR53G67JWq7ne/7roxjKpfL82q1mlkqk+rqdgOgWq3eTkR7p4I0dWM2ABxALYIkGwBFqFKcHNkAKLwBcNJJJ22zfv16szP/ZnFKHjeGiN6slNqwyZGU8qOI+PG4bVvFEcBdzWnfzjb/25gDGwDpDQDf93cGgLtb1bXdfyei9ymlXB2p1W5ambfrdgNgw3eJ799p+/jSSYXqC4LgnMwLZ7FD29+1k1IbCYJggcVUrUpJKc1msCci4lEA0GNVPKaY1voFYRjeFjPcjOW7EcB8N7q4jguC4AsuhLPSlFKeiYjLHfT3YBAE29nQ7XYDQEr5O0TcywarTTTYAHAAtQiSbAAUoUpxcmQDYAOlom4COOkh98sAYDZYsnltOFe7+abjL5Z3pT45CILTbSY7nRYbABNk0mwCWKvVekZHR83bLic/zImITwKY+B46FRFPsf25yBNfKeUPEPGVtu/R6BHR55VS5nz2wl6+718OAG+2fQMzbO5qu6tUepVKZRdEPFkIcSwAlFKJJWxMRJ9RSn0gbjMp5Q8R8cC48UniiOgspZTZe6Wwl+/75sSP19m+ASK6Til1sA3dbjcA/Gr1D0D0LBusNtFgA8AB1CJIsgFQhCrFyZENgA2Uim4AmOOWEPEncUqeICYSQjxda22OkPlGgnatQtePj48vWrly5QOtAm38OxsAExTTGAAbPiMO33Yh4t+32GKL7Yu+gVva8TpLDIALEdFMDbZ+EcAdKgisnVJiPcEYgr7vm+/Fp8UITRRStAdKsxcCIqrG37UsTwj55+rVq5+2atWqKA5cKeUFiHhcnNikMUU/1rK53McsN7G+mSERfUopZeVY2m43AJp7RO2RdPzFiGcDIAakbgxhA6BbqsoGQFcYAOYmfN//LQA82+bQJKJzm9PHDrClq7W+MgzDN9nSa6XDBoAlA0DKqxHxsFa8U/z7/kEQ/CxF+8I3nQ0GgO/7JwDAWa6KNT4+vn1W5qLte6hWq88gojtt6zb1jg6C4BJH2s5kPc97sxDiswCwjbNO/ls49veQ53kfFEK4WnKix8fHtynqRoC+75vNHX/jqGbWTrPoegPA9/+EAC6OlGQDwNHgzrssGwB5r1Dc/NgA6BoDQErZh4iZn/Ecd6htjCOiQ5RSZmpgJhcbAHYMAN/3TwKAT7kqGhENKqU8V/pF0J0lBsB+APBTV/UgomOVUhe50nep63ne+4QQn3HRRxRFuw0ODroyF1yk/Ljm8uXLd9RaXwwA1ozo6RImopOUUmfEuaFKpeLyWEuzpGWxUsosCSnc5Whz4g0cbJp8s8AA+DMC7OpgALEB4ABqESTZAChCleLkyAZA1xgA/f39W/X09JgjsObFKX0nYjTAPfeuXr1L3CmWNnJkA8CaAWDWuv7QRk2m0Xg4iqIdBgcHzV4Ds/KaDQZApVLZvFQqPeJq93Qi+o5S6pAiDiAp5bWI+BoHuf+7sTnik802CQ60M5Gs1WpzR0ZGvoOIr3Lc4RVBEMQ67tbkNDo6asay1Q14N94fEV2ulFrs+H6dyEspb0LE/R2I3xcEwU62dGeBAeBk01Wt9cowDCu26jBZB+ErDxf2i8oFkJxpsgGQs4K0nQ4bAF1jAJgbcbkmse0xNqmh1roWhqG10wTi5MQGgDUDYAsAMOdSO9kI0GSptX5PGIYXxqlrN8bMBgNgw/eU7/8KAZ7vqIbriWh7pdQ/Hek7kW2e5vKgi88XEV2mlHqbk8QzFF2xYsWW4+PjP0VEc2KAk4uI/qiUir1pmpTS5GNmtbi4HhVCbDswMDDiQtyVZqVS2aFUKt3j4lhHIrpQKfUeW7nPAgPAyUkVWuvPhWG4xFYd2ABwQdKNJhsAbrhmr8oGQFcZAJVKZd9SqXRz9gMpVo+R1nrnMAzvjRVtKYgNADsGwIYHNylvQcQXWSrNE2TMJm4jw8PPPv/889e76iPPurPGAJDy04i41GEtTgyC4EyH+talXU6ZBoBCrv+fCrLneS8RQtzk4uGy2d/aIAiM2Rnr8n2/brbgiRXcXlDhjrb0PO8jQohPtHe7LVtZW/9veup2A6Barf6lcQrM01tSTRjg0lTkGQAJi5FxOBsAGQN31h0bAF1lAGx4SHP7dq3toUhE31ZKHdq2QJsN2QCwagCcjIifbLMUsZoR0QeVUufGCu6yoFlkALweEa9xWL4HxsbGdh4aGhpz2Ic1aXPU6sJFi8xaXRdnyptTV55a1M3kpoIspfwCIppjAp1c4+PjW8flVa1WX05EP3aSyMSajb/ML5d3r9Vq4676sKnbXBbxVwDYzqZuU2ttuVx+Sq1WW2tLu9sNAM/3VwuAhbZ4bdRxudSKDQDb1bKrxwaAXZ6dU2MDoOsMAJcbSaUcqFad+7i5sAFgzwDwPG93IcSf4rJvM+6hOXPm7Hn66af/q832hW02WwyAvr6+3t7e3n8AwHxXxdJaLw3D8DxX+jZ1Pc97qxDiUpuak36oX6+UOsiFdqc0fd93upFkFEU7Dg4Omv10Wl7GvFm0aNH9APDUlsFtBmit3xWG4ZfabJ5pM9/3zRGfTpZxEdHVSqkjbN5QtxsAzn7/EP1cKeVk6QsbADZHuH0tNgDsM+2MIhsAXWcALF++fL7W2vx4cfbjuo3B+kC5XF7YibcYzv4AAtypgmC3NljM2KRarT5IRNva1kXEl9XrdTN1NtXl+/6vAeC5qURaNC7y5ldpuMwWA8AwklKuQsRYm621yfRfc+bMeWbejSRjhmy22WZ/IKJd2rzPGZtprT8UhuGnXWh3UBOb3+s7uMgh6YkJUsrPIeLxLnJpapoZLXsMDQ0NO+wjtXRjOYRZOmEMYid10Vq/OwzDL6ZOdJJAtxsA0ved7AEAAI8EQbC1i41F2QCwOcLta7EBYJ9pZxTZAOg6A8DckO/75iip93VmUD2xVyL6lFLqw53Ihw2ACeq2DADP8z4shDgtg1oeFwTBFzLoJzddzDID4BhEdPpWU2t9QRiGLh/MUo8dKeWJiHh6aqGpBdaUSqUdzjzzTLNTfVddUsrrXZ0IoLVemGSvGt/3/wcAvuUSsNb67DAMl7nsI622q++vZl4Pl8vlHW1O/ze63W4A+NXqH4Ao9qaWScZAFEXPGBwcvDtJmzixbADEodS5GDYAOsfebs9sAHSlAeB53vOFEL+yO1jaVtPNNyrW/1DEyYgNALsGQH9//3Y9PT1mjefcOPxTxJj1268LguBHKTQK1dTVD+jGJlBfVEqZqbm5ubKaqUREb1dKfTU3Nz4pkWq1+jwi+jkA9DrK77NBELy/He0lS5bMyfNmnFLKLyHiMe3cW6s2SfYAMFqG1YIFC1Y7Wve+MV1zMtobgyC4qlX+nfj35uaMZi+EOY76d3LufLcbAI73hHpTEARX2q43GwC2idrVYwPALs/OqbEB0JUGgLkpWa3ejET7dm5wTfRMRNcppQ7uVB5sANg1ADaMLSm/iIjvyqCm5tjBA4IguD2DvtruolarieHh4X4hxMVBEDzUrtBsMgCa4+gcRPxgu7xitlsTRdF+g4ODv40Zn0nY0qVLy5tvvvkvEHEPVx1GUfScdu9bSmmMCb+xf8CNrvJLoyulvAwR35JGY7q25XJ5TtLlap7nfUwIUXORzyTNR4QQLx4YGHC9D0ui2+jv79+q1NNjjvZ0sYmlyUUj4u71ev2uRInFCO52A8DzvBuFEC+NgSJxCBF9Xin13sQNWzRgA8A2Ubt6bADY5dk5NTYANrB3cbwZIu7q4g9W3MHied5xQogL4sa7itNavyUMw1Wu9FvpsgEwQcjWEgCj5fv+cwDA7AWArfhb+PeHiejwvD6I+L5vfvSapQoHJNk8bCous9AA2LOxD8DvMhhHDwohDszLg1PzjfHVZoaLhc/HdBI3NGbPHNiuvu/7DwPAAiL6zLp1607K2/pzKeVPzHdau/c3Q7sHgiDYPqluc2aUmQXg6g34xpTujaLoQBdTr5Pes4k3e1jMnTv3u4jY9liL0e81QRCYZRbWr243AKSUVyDim6yDmxB8eGxsbDvbp62wAeCoWpZk2QCwBLLjMmwAbChBNxoAtVpt3ujoqNkMcKtOjbPG271/bLHFFmbd3rpO5cAGwAR5mwZA8zNzLSK+JqO6PgoAxwZB8LWM+mvZTfO4KwkApwDAPNOADYCW2J4Q4HIt9yad3R9F0cGDg4O/T56lvRYbjvxbuNAcY+dk+vrGTInoYKXUde1m3jQANv7teIiIPjZ//vzPJ30z3m7/M7VrniLxoIu/bUT0I6XUK9vJW0r5VUR8WzttE7ZZrbU+OAzDOxK2sxpujKz58+df4ngzT9BavzQMw59aTb4p1u0GgOd5Q0KID7lgZzRdvOBhA8BVtezosgFgh2PnVdgA2FCDbjQAzH25/vKPMYCDIAiqMeKchbABMIHWtgFQqVT2KZVKNwOAcFa8TYSJ6Pz58+dXbG8ElTR/s+kXEQWbTt9mAyApyQ3fva9HxGuSt2yrxQgRvVMp9Y22WqdsZHZJJyLzkHhYSqkZm2utrw3D8LVp+tjEANggRUTmtIKTwjD8povdv+Pm63nem4UQl8eNTxJnZjwopT6QpM3GWCnlCxHxFxnMaDFd/qe5v8V32sk1bZu+vr4Fc+fOvdy1Cay1vjIMQ1dvsLt+E0Ap5cmI+Mm09Z6uPRH9ed26dXvbnAXABoCratnRZQPADsfOq7ABsKEG3WoA+L7/bADo1NpXEkI8q9PTbtkAcGMAND83FyDicVl+kRHAHaS1DMPQ6a7bU92T7/uvIqLTEHHK84/ZAGhvJGQ4C6D5HEvnlEqlDw8MDIy0l3HyVmbZDAFchADPS946UQuttd4nDMPbErXaJHgqA2BjCCL+lojOKJfLX8t6RoCZ2TYyMnILIu6V5v5meKA5Vil1UbvaUkrzRvyodtsnbBcR0UpE/FjDaF+TsG3b4cb8FUJchIh7ti0Sr+E4Ee2tlPpjvPDkUbNgBsBiIYTTmXNmdpBS6hPJ6U/dgg0AWyTd6LAB4IZr9qpsAHS1AWBuzuUmMC0GbKo1qLY+DGwATJC0PQPAaC5btmzbOXPmmGmoC2zVK66OectZKpU+Ua/Xb4rbpp04M9V/eHj4LYh4AiK+aCYNNgDaIbzBgDVvTm/JcjYJANwLACeuXr36slWrVkXtZd66VfO0AzML6sQM1oebt/RfUUq9o3VmM0fMZABsbEkAfyGtL+jp6bloYGDgvrR9tmpfq9V6hoeHLxJCvL1VbJv/bkzrHQcGBu5vs73ZH8XsCfK/Dk92eEJqzTqsWLBgwRW1Wk23m3urditWrNhyfHzcvFH2AKCnVXzafzczvpRSTo8z7nYDYPny5c/UWjszUJo1NidU9AdBcHaamvf19T1l7ty5B7EBkIai+7ZsALhnnE0PbABs4NytMwCa9+b8vO2pBqvW+pgwDC/OZiBP3wsbABNsXBgARtfzPE8IoTpVZzIPjlqf09PTc7XN886r1eoztNbHNWc4PC3O/bEBEIfS1DFSyosR8ej2FdpraaawImK9VCp9zeb48X3/qUS0BBH7AWCb9rJL3OphIcRzbDyMxzEAJmVnDJTrtNZmecM1Sql/Js68RYPmg9qlZrNN29ob9QjgdhUEz02rL6UMEbGSVidp++YSjfpjjz12+bnnnjuatP108WaDw1Kp9H5jgrrYd2Gafs1pKnunOVUlzv13uwFg9hxZtGiRmem0eRweaWLMcg2ttbdy5UpzTHDsq1Kp7CCEeDciSiL6MRsAsdF1JJANgI5gd9ApGwAboHazAVCr1TYbHR01b2ey+hFqkP67XC7vUKvVHnMwahNJsgEwgcuVAdDc1Oz7jneBjlPzMQC4HgC+Q0Q3j4yM/DrpOeaVSmWvUqn0GiI6DBHNRmCJTjlgAyBOmaaO8TxvJyGEOe6xU5uWmu+qbzemz3+rMQZuqtfrf054N1ipVMypBi9rTJF/MyK+CgBKCTVShds0XRMaAJPzjhob1P3UGAHmx/yCBQtuTbMJbPONujly1BgpW6YC1Lrx8iAI6q3DZo6oVCpPKpVK5nSL7dJqtdl+LRF9k4hMDW5MemKAOdb0kUce2UsI8XIAOBIRX5H1WAYAJ2fMb8qz2w0Ac7+e5/24Wcs2h1OiZuuJ6CoiMt+lP5rODKhUKruY/SMQ8QhENMdEb/iuJKKr2QBIxDvzYDYAMkfuqEM2ALreAGgaHJm+kdBanx2G4TJHozaRLBsAbg0Ao24c/FKpZI4FfHKi4rgNNicH3KG1/isimv8eICLzkPcoIpqHlM2EEOaYs4UA8MzmmuKnpkmJDYA09Db8UH2HEOLL6VSstTY735ups+bs8b8S0drG1OdhM3aIqEREC4QQZSLaBQB2bo6fra31nlzoiiAIjkzebOoWKQyATQUf01r/4v/auxsgO6+6juPnf+7dJJjttoCApEnTIjNQHRhs60tB0SpigSogFhWKUNBCR4J773PTTEXxZlDysve5N23E0TBDS3nJxAB2kHFQGEErxbZSRkBGKrQTwnuANtlNs5vce457kpuxxCT7bO45zzm7z/fOZNKZPvd/zvP5n93s/u7znEdr7X4hfmAwGPy31vqAMcZdrXBoxYoVdnZ29vx6vV4bDAYupF43/1jN9UqpZ9ZqtauGvr5O62x15uafa77W19ULzWbzxVprt0/JokLEQCf67eFaftBa674XPjr/ucf0ybUsIi5YOc+tY2PMJfMbLLq9g0KHLWc71Ts6nY4LfYK/KhIA/JnWuh0c8/QDfMsqdUBZ+4PhxpVP0lpfrJS68HSHEwBE6tIihiUAWARW0ocSAFQiABjeB+buSyzrhxF36Z77gS/6iwDgRAtCXQFwssHNZvMarbV7tnlZayz62jp1AgQAo7cky7I9IvLK0StVp4KIfGd2dtbtxH3A11l7DAB8TSloHWvte/I8f53PQZrN5i6t9R/4rFmBWvv7/f6zd+zY8UgZ51qFACDLMndV0l1leI46BgHAqILh308AEN64nBEIACoRALiTzLLsk2Vcpm2t/Uye588tZwEvPAoBQDkBwHCNbRERt9lZJV8EAKO3fXj5tLsV4LSfEI0+wrKrcNRa+6t5nv+rzzOrWAAw2+/3L13svcsLebsNIAfG/Kco5TYG5LWwwJHBYPBLvV7PbQhayqsKAcBwHwC36WmsW1IK95IAoDBVtAMJAKLRex6YAKAyAUCr1fqd+Uudd3teQacr9/pOp3NbCeMUGoIAoLwAwH36n2WZezTg9YWas8wOIgDw01D3mLFarfYppdRqPxWXbxVr7RvzPN/l+wyrFABYa9+R5/lbfRu6ehs3bnyOuw+ftbygrttJ/rpOp/OBBY/0eEAVAgDHlWVZx22y55EuSCkCgCCsXosSAHjljFiMAKAyAYB7nNnMzIxLgUe6z3mB1XpIKbWmzGcSL/TVQwBQagCgbrjhhrGJiYk7lVIvXqg3y+3/EwD462ir1Xq5UuqDJT8a0N8JlFDJWrs9z/NNIYaqSgDgngJx5MiRy3zumn9qP7Ise5mIfIi1fOaV6vtZ8kW/JqoSADQajWfVajV3ZVXSLwKApNtzfHIEAOn3qNgMCQAqEwC4E202m1u11kF+YHT1rbV/nef5jcUWXzlHEQCUGwC40Vqt1mpr7cdF5MpyupzGKAQAfvuQZVlDRLp+qy6PatbaPeedd96rQj33vSIBwJyIPHdqaur+0Ksiy7KbRGRb6HGWYn1r7W15nr/B/QhR9vyrEgA41yzL/kFEXlS28WLGIwBYjFacYwkA4rj7H5UAoFIBgHu2ubX2gVCfRIjI5WX8MLWYLwQCgPIDADfi8ftfB4OPlLHvxGLWQ8hjCQD862ZZVul9JU4naox51/79+2/cu3fvwL/4iYpVCACstX+Y5/lfhTI8tW6WZbeKyIayxlsK4wyfGOQe8Vj6L//Op0oBQKvVcoH83SmvCwKAlLtzYm4EAOn3qNgMCQAqFQC4k202m/+otXbPXfX6skp9Nu90rvBa1EMxAoA4AYAbtd1ur5qenna7uv+Gh1YmX4IAIEyLWq2W+wUhDxVchpl1mKrGmG3dbvfm0L8wVSAA+ItOp/MnYbp05qpZlv2xiPx5lZ+WclIn1mX/j+1OlQIAd96tVsvdVvWKstd90fEIAIpKxTuOACCevd+RCQAqFwBkWfabw/sRva4lY8ybut3u33gt6qEYAUC8AGAYAtSnp6ffLSKv8dDOpEsQAIRrT7PZ/G2t9XuUUivDjZJ05YG1dlOe5y4ICf5azgGAtfadeZ6/OTjiGQZoNpuv01q/SylVjzWHyOP2rbV/VObVF2c636oFAJOTk0+t1+tfUkpdEHkNnHZ4AoAUu/LDcyIASL9HxWZIAFC5AGC4Sds+z4+EOTw3N7dm586dbhPApF4EAHEDgOFicE8HeIuIbFdKrUhqgXicDAGAR8zTlGo0Gr9Yq9XcLuFrwo6UXPVvDXdI/+eyZrZMA4D5D53t2+czvDw6DQAADaZJREFUlHboKygW6tPGjRtfaK19b+BNeReaRoz/v19EfndqaurTMQY/dcyqBQDu/LMse7WIvC8F/1PnQACQYlcIANLvyrnMkACgcgHA8B+At4uIt8sfrbXvHm7icy6rMOh7CACSCACOT8I93q1er++x1j4taNMjFScACA+fZdmPKqXcoyYrcVvJcDNN93i074bX/b8RlmEAcMwYc0O32729TMezjeV++TTG3C4iv5bKnELOw1r79ytWrLh+y5Yt3w85zmJqVzEAcD6hN4ReTA8eeywBwLnKlfc+rgAozzrsSAQAVQ0A1s9fkv1VpVTNxwIzxlzZ7Xb/3Uct3zUIANIJANxMNm3adH6/398pItctt/tgCQB8f/WeuV6z2bxRa+0uh39ceaOWOtKMMWbzxMREN9RO/2c7m+UUAFilvmoGg1f1er17S+1gscHc1VGTIrJlGd/ectBa+6d5nv9l7CsvTm1JVQOAdrutZ2ZmblNK/V6xZVrOUQQA5TiPMgoBwCh6Kb2XAKCSAYA76SzLPioiLxl1OYrIF6ampp49ap1Q7ycASCsAONnnjRs3Ps9Yu1OU+qlQvS+57pxS6qJRPqnNsszrlTknz99ae3ue59eX7BF8uMnJyYtrtdpWEXnlMgqT3G7o73ePa92+ffs3gyOeYYBlFADcobV+8/bt26djWRYZt9FoPN3dIqW1fnmR45fIMcYYc9tgMHjrLbfc8p0U51zVAGDYC2k2m7e6r49UekMAkEonzjwPAoD0e1RshgQAlQ0AWq3WryulPlJsoZz5KGvtW/I83zlqnVDvJwBIMwBws7r22mtr69at+/1arbbZWvuUUGsgcF23odUd9Xp987Zt2742ylgEAOem5x5vZa3tisjPnVuFNN5lrb1HRBqdTuczsWeUtVqfE6WeE3se5zq+VepzZjBo9Hq9fznXGjHe5/a50LVaLkpdHmN8X2Naa//NGOP8/8NXzRB1Kh4AHCdtNpuv11rfqpRaHcJ4MTUJABajFedYAoA47v5HJQCobADgfvlav379Q/P3064bYWEdqdfrF27duvXhEWoEfSsBQLoBwMnGb9iwYeXKlSuvs9Y2ROQngy4If8VnlFLvNcbs6Ha7D/goSwAwkqL7NOslIuI2m3zBEroiwFhrP2qM6Sb2y6q0Wq1fUUq9SSl1zVK5PN1a+yVr7dTExMQdMW6dGGkFD988vDz7pdbaDSJylY+aJdUYKKXudGu52+0m/bz5kx4EACckbrrppmcMBoN3ioj7mo/2IgCIRl94YAKAwlSJH0gAUNkAwJ14lmVvE5HNI6zS93U6naQf70YAkH4A8Jj15+6HvVopdaOIvDDBXzrcLuLuPuLd9Xr99m3bth0c4Wvn/72VAMCP5uTk5KX1en2DUsp9bxr3U9V7le9ba/dorXdMTU39j/fqHgu6fTuOHTv2UhH5LRH55RQ+KTzl9NwjEj/mPsWcmpr6eGr3mY/Sikaj8SwR2aC1frVS6kdGqRXqvSJywBjzAWPMrb1e78FQ44SoSwDww6pZlr1oPjzdLCI/HcJ7gZpHlVJvE/X+h919ULzSFCAASLMvi58VAcDJAMBtTvOMxQOe+R21Wu21Me/hLHIujUbjQq31Oe+K7J4k0Ol07ikyVqxjsizbrZRyO4d7fYnINzudzmu9FlVKtVqtv7XWPt53XWPMZK/X+y/fdUPV27Bhw8TKlSuvsda+QkRcKBDrh99H3OWsSqlPWGs/3O1294c6Z/d8cBFxP+h7fYnIP3U6nSmvRZdAsUaj8bhareYet+Z+eXW3PHn/PrBIBvc4vzuVUh8eHx//VLvd7i/y/dEPb7fbKw4ePHil1tpdZfE8EXGXqk9EmJjb1f+TWusPzs3N3blz584DEeZQ2pCtVmu1MeZqEXFr2e3d84TSBj/9QN8wxvyd1vpD+/btu2vv3r3u0/8l92o0Gk/QWu8JMXG3sWOn0ynt0Z0+z8E9sUdr/UYReVng75tHrLX3udtRa7XabvczMwGAz076r0UA4N80TkUCgDjujIoAAoUF2u32qsOHD18+GAx+VkSuHN7rvbZwgeIH/kAp9QVr7ReVUp/XWt+7evXqzy/VS4mLn/byP9Ld8rR27dqfF5Hnu0+3hp9w/VjIMzdKfU2sdffzu3v77x4fH79vua0ld7n6wYMHL9VaXzZ/RcOlSqlnishPiMiPK6XqHn2/rpT6ojHmbq31XePj4/e22+1HPdZfMqXa7XZ9Zmbm+caYX3DrWGv9M9baJ4U8AavUQ8pa96Sfe4wxn+71ep9dTldahLRbyrWH+/S4NXb1/GMcLxeRy5RSa87xnB621n5FKeX+3Oe+Jx46dOj+Xbt2HXtsPQKAc9Qt6W0EACVBBx+GACA4MQMggIB/gZtvvvmJR48evVgptX5+l/vjf2utn2qtHRte9r1aiawYPupyYI2ZFRH3acNhpdT3RMTtSv09a+3XReTBsbGxB1Pey8K/IBU3bdp0Ub/fv0IpdYm19iK3hkTri0SpC5VSFyil3Po528vtLH/Yirhf9PcppU7+eajf79+/Y8cO94l/JV/uSoHp6emnD0OBS9QJ0yeLyJOPX80jsvLk16ay1v0CMCMiR6217pP871prv+2+Ro0xXx4bG/ty6rv4x27y8IkYV7jvhSLi1vLxv0VkjbX2/AJr+dDxtXxiHbvNTPe5/3bfG91aTnUX/9juVRzf/dvb7/fXucfeaq2fYox5vNa6Zow5X2vtrmo6PH/F4SMi8qi11v1xV819pdfruYB9wRcBwIJEUQ8gAIjK73FwAgCPmJRCAAEEEFhOAu5WlHq97j7JvkBrPRgbGzs0Nzc32+v1jiyn8+Rclr+A28tBa12fnZ11fx9fy6tWrTrSbrdnl//Zc4ZLRYAAIO1OEQCk3Z/isyMAKG7FkQgggAACCCCAAAIIIBBEgAAgCKu3ogQA3igjFyIAiNwAhkcAAQQQQAABBBBAAAECgLTXAAFA2v0pPjsCgOJWHIkAAggggAACCCCAAAJBBAgAgrB6K0oA4I0yciECgMgNYHgEEEAAAQQQQAABBBAgAEh7DRAApN2f4rMjAChuxZEIIIAAAggggAACCCAQRIAAIAirt6IEAN4oIxciAIjcAIZHAAEEEEAAAQQQQAABAoC01wABQNr9KT47AoDiVhyJAAIIIIAAAggggAACQQQIAIKweitKAOCNMnIhAoDIDWB4BBBAAAEEEEAAAQQQIABIew0QAKTdn+KzIwAobsWRCCCAAAIIIIAAAgggEESAACAIq7eiBADeKCMXIgCI3ACGRwABBBBAAAEEEEAAAQKAtNcAAUDa/Sk+OwKA4lYciQACCCCAAAIIIIAAAkEECACCsHorSgDgjTJyIQKAyA1geAQQQAABBBBAAAEEECAASHsNEACk3Z/isyMAKG7FkQgggAACCCCAAAIIIBBEgAAgCKu3ogQA3igjFyIAiNwAhkcAAQQQQAABBBBAAAECgLTXAAFA2v0pPjsCgOJWHIkAAggggAACCCCAAAJBBAgAgrB6K0oA4I0yciECgMgNYHgEEEAAAQQQQAABBBAgAEh7DRAApN2f4rMjAChuxZEIIIAAAggggAACCCAQRIAAIAirt6IEAN4oIxciAIjcAIZHAAEEEEAAAQQQQAABAoC01wABQNr9KT47AoDiVhyJAAIIIIAAAggggAACQQQIAIKweitKAOCNMnIhAoDIDWB4BBBAAAEEEEAAAQQQIABIew0QAKTdn+KzIwAobsWRCCCAAAIIIIAAAgggEESAACAIq7eiBADeKCMXIgCI3ACGRwABBBBAAAEEEEAAAQKAtNcAAUDa/Sk+OwKA4lYciQACCCCAAAIIIIAAAkEECACCsHorSgDgjTJyIQKAyA1geAQQQAABBBBAAAEEECAASHsNEACk3Z/isyMAKG7FkQgggAACCCCAAAIIIBBEgAAgCKu3ogQA3igjFyIAiNwAhkcAAQQQQAABBBBAAAECgLTXAAFA2v0pPjsCgOJWHIkAAggggAACCCCAAAJBBAgAgrB6K0oA4I0yciECgMgNYHgEEEAAAQQQQAABBBAgAEh7DRAApN2f4rMjAChuxZEIIIAAAggggAACCCAQRIAAIAirt6IEAN4oIxciAIjcAIZHAAEEEEAAAQQQQAABAoC01wABQNr9KT47AoDiVhyJAAIIIIAAAggggAACQQQIAIKweitKAOCNMnIhAoDIDWB4BBBAAAEEEEAAAQQQIABIew0QAKTdn+KzIwAobsWRCCCAAAIIIIAAAgggEESAACAIq7eiBADeKCMXIgCI3ACGRwABBBBAAAEEEEAAAQKAtNcAAUDa/Sk+OwKA4lYciQACCCCAAAIIIIAAAkEECACCsHorSgDgjTJyIQKAyA1geAQQQAABBBBAAAEEECAASHsNEACk3Z/isyMAKG7FkQgggAACCCCAAAIIIBBEgAAgCKu3ogQA3igjFyIAiNwAhkcAAQQQQAABBBBAAAECgLTXAAFA2v0pPjsCgOJWHIkAAggggAACCCCAAAJBBAgAgrB6K0oA4I0yciECgMgNYHgEEEAAAQQQQAABBBAQtfuRN8CQqEB/8A31mid+rMjs7CfU05RSVxU5lmOiCNwlL1APRBmZQRFAAAEEEEAAAQQQQACBeYH/Ba7/4RXvu63PAAAAAElFTkSuQmCC;clipPath=inset(0% 0% 0% 0%);" parent="1" vertex="1">
          <mxGeometry x="700" y="120" width="70" height="14.92" as="geometry" />
        </mxCell>
        <mxCell id="5U30cNDtQMpAbmY5_7fr-47" value="Load Balancer" style="text;html=1;align=center;verticalAlign=middle;resizable=0;points=[];autosize=1;strokeColor=none;fillColor=none;" parent="1" vertex="1">
          <mxGeometry x="747" y="185.5" width="100" height="30" as="geometry" />
        </mxCell>
        <mxCell id="5U30cNDtQMpAbmY5_7fr-49" value="Private Link&lt;br&gt;Service" style="text;html=1;align=center;verticalAlign=middle;resizable=0;points=[];autosize=1;strokeColor=none;fillColor=none;" parent="1" vertex="1">
          <mxGeometry x="680" y="180.5" width="90" height="40" as="geometry" />
        </mxCell>
      </root>
    </mxGraphModel>
  </diagram>
</mxfile>
